<svg id="Capa_1" enable-background="new 0 0 512 512" height="512" viewBox="0 0 512 512" width="512" xmlns="http://www.w3.org/2000/svg"><g><g clip-rule="evenodd" fill-rule="evenodd"><path d="m256 433.904c97.965 0 177.902-79.91 177.902-177.904 0-97.967-79.938-177.876-177.902-177.876-97.965 0-177.902 79.909-177.902 177.876 0 97.994 79.937 177.904 177.902 177.904z" fill="#e1f1ff"/><path d="m256 78.124c98.249 0 177.902 79.626 177.902 177.876s-79.653 177.904-177.902 177.904c-4.082 0-8.136-.17-12.132-.425 92.58-6.236 165.742-83.311 165.742-177.479s-73.163-171.215-165.742-177.479c3.996-.255 8.05-.397 12.132-.397z" fill="#cbe2ff"/><path d="m390.107 209.199c55.53 0 100.828-45.298 100.828-100.858 0-55.53-45.298-100.829-100.828-100.829-55.559 0-100.857 45.299-100.857 100.829 0 55.56 45.298 100.858 100.857 100.858z" fill="#ffe5a0"/><path d="m121.893 504.517c55.559 0 100.856-45.327 100.856-100.857 0-55.561-45.297-100.858-100.856-100.858-55.531 0-100.829 45.298-100.829 100.858.001 55.53 45.298 100.857 100.829 100.857z" fill="#ffe5a0"/><path d="m390.107 209.199c55.672 0 100.828-45.156 100.828-100.858 0-36.765-19.673-68.938-49.096-86.57 9.07 15.137 14.286 32.826 14.286 51.762 0 55.701-45.156 100.857-100.857 100.857-18.907 0-36.624-5.216-51.761-14.286 17.634 29.422 49.807 49.095 86.6 49.095z" fill="#f2ce7e"/><path d="m121.893 504.517c55.701 0 100.856-45.157 100.856-100.857 0-36.795-19.672-68.969-49.096-86.571 9.071 15.108 14.287 32.825 14.287 51.732 0 55.701-45.156 100.858-100.857 100.858-18.936 0-36.624-5.217-51.761-14.26 17.632 29.396 49.805 49.098 86.571 49.098z" fill="#f2ce7e"/><path d="m355.581 118.574h69.023c17.462 0 31.776 14.288 31.776 31.777v34.016c-17.744 15.477-40.903 24.832-66.273 24.832s-48.558-9.355-66.303-24.832v-34.016c.001-17.489 14.315-31.777 31.777-31.777z" fill="#a5cdff"/><path d="m87.396 413.892h69.023c17.462 0 31.776 14.287 31.776 31.748v34.017c-17.745 15.477-40.904 24.86-66.302 24.86-25.37 0-48.529-9.383-66.274-24.86v-34.017c0-17.461 14.315-31.748 31.777-31.748z" fill="#ccf49f"/><path d="m154.066 392.065c0 17.688-14.457 32.173-32.173 32.173-17.688 0-32.145-14.485-32.145-32.173 0-11.481 0-22.99 0-34.471 0-9.921 8.079-18 18-18h41.527c3.317 0 4.791 1.899 4.791 4.79z" fill="#ffcbbe"/><path d="m89.748 357.595v10.375h64.318v-23.585c0-2.891-1.474-4.79-4.791-4.79h-41.527c-9.921 0-18 8.079-18 18z" fill="#c68b87"/><path d="m422.28 96.776c0 17.688-14.485 32.146-32.173 32.146-17.717 0-32.174-14.458-32.174-32.146v-34.498c0-9.893 8.107-18 18-18h28.318c9.921 0 18.028 8.107 18.028 18v34.498z" fill="#ffcbbe"/><path d="m357.934 62.278v12.529c9.071 3.373 16.64.539 20.977-1.928 3.401-1.928 3.969-2.296 7.313.623 15.448 13.521 36.057 6.01 36.057 6.01v-17.234c0-9.893-8.107-18-18.028-18h-28.318c-9.894 0-18.001 8.108-18.001 18z" fill="#477b9e"/><path d="m397.987 80.052v16.725c0 13.407-8.306 24.944-20.013 29.764 3.742 1.56 7.824 2.382 12.133 2.382 17.688 0 32.173-14.458 32.173-32.146v-17.264s-11.848 4.308-24.293.539z" fill="#f7beaf"/><path d="m379.987 44.278c9.921 0 18 8.107 18 18v17.774c12.444 3.769 24.293-.539 24.293-.539v-17.235c0-9.893-8.107-18-18.028-18z" fill="#365e7d"/><path d="m125.011 339.595c3.317 0 4.791 1.899 4.791 4.79v23.585h24.265v-23.585c0-2.891-1.474-4.79-4.791-4.79z" fill="#bd7d79"/><path d="m129.802 367.97v24.096c0 13.407-8.306 24.973-20.041 29.791 3.77 1.531 7.852 2.382 12.132 2.382 17.716 0 32.173-14.485 32.173-32.173v-24.096z" fill="#f7beaf"/><path d="m432.116 150.352v49.72c8.845-4.082 17.008-9.383 24.265-15.704v-34.016c0-17.547-14.371-31.777-31.776-31.777h-10.913c-.681.737-1.36 1.417-2.098 2.069 12.33 4.705 20.522 16.555 20.522 29.708z" fill="#8abfff"/><path d="m163.902 445.64v49.721c8.873-4.054 17.036-9.355 24.293-15.704v-34.017c0-17.517-14.372-31.748-31.776-31.748h-10.913c-.68.709-1.36 1.389-2.098 2.069 12.33 4.706 20.494 16.555 20.494 29.679z" fill="#b3e59f"/></g><path d="m158.856 406.465c9.837.596 18.737 4.876 25.285 11.452 7.115 7.086 11.509 16.895 11.509 27.723v15.25c12.302-15.789 19.616-35.659 19.616-57.23 0-25.769-10.46-49.126-27.354-66.021s-40.223-27.326-66.019-27.326c-25.767 0-49.096 10.432-65.991 27.326-16.895 16.895-27.354 40.252-27.354 66.021 0 21.543 7.313 41.385 19.587 57.203v-15.223c0-10.8 4.422-20.607 11.509-27.723 6.577-6.576 15.477-10.857 25.313-11.452-1.757-4.479-2.721-9.326-2.721-14.399v-24.096-10.375c0-7.03 2.863-13.408 7.483-18.028 4.62-4.621 10.999-7.483 18.028-7.483h46.318c4.166 0 7.512 3.345 7.512 7.512v28.375 24.096c.001 5.072-.963 9.919-2.721 14.398zm-61.625-45.979h49.351v-13.408h-38.835c-2.892 0-5.499 1.19-7.427 3.09-1.899 1.928-3.09 4.535-3.09 7.427v2.891zm49.352 14.995h-49.352v16.584c0 13.549 11.112 24.661 24.662 24.661 13.578 0 24.689-11.112 24.689-24.661v-16.584zm268.186-286.784c-8.73.964-21.714.283-32.797-8.985-3.969 2.154-9.694 4.309-16.555 4.109v12.955c0 6.774 2.778 12.926 7.257 17.404 4.479 4.479 10.63 7.257 17.434 7.257 6.774 0 12.926-2.778 17.404-7.257 4.479-4.479 7.257-10.63 7.257-17.404zm-49.352-19.843c4.45.283 9.213-1.445 12.529-4.394 3.118-2.692 7.853-2.353 10.545.766 8.362 9.581 19.786 9.496 26.277 8.447v-11.395c0-2.863-1.19-5.499-3.09-7.398-1.899-1.928-4.535-3.09-7.427-3.09h-28.318c-2.891 0-5.499 1.162-7.427 3.09-1.899 1.899-3.09 4.535-3.09 7.398v6.576zm-270.17 352.521h-7.852c-6.662 0-12.728 2.75-17.122 7.144-4.422 4.394-7.143 10.46-7.143 17.121v30.559c6.491 5.244 13.691 9.666 21.458 13.039v-29.708c0-4.167 3.345-7.512 7.483-7.512 4.139 0 7.512 3.345 7.512 7.512v34.782c7.144 1.758 14.627 2.692 22.309 2.692 7.71 0 15.193-.935 22.337-2.692v-34.782c0-4.167 3.373-7.512 7.512-7.512s7.483 3.345 7.483 7.512v29.708c7.767-3.373 14.996-7.795 21.487-13.067v-30.53c0-6.633-2.75-12.699-7.172-17.121-4.393-4.394-10.46-7.144-17.121-7.144h-7.852c-7.03 6.435-16.413 10.375-26.674 10.375-10.232-.001-19.615-3.941-26.645-10.376zm334.517-324.599c0 5.045-.964 9.921-2.721 14.371 9.836.624 18.736 4.876 25.312 11.452 7.087 7.116 11.48 16.924 11.48 27.752v15.25c12.303-15.816 19.616-35.688 19.616-57.261 0-25.767-10.46-49.096-27.354-65.99-16.895-16.896-40.224-27.354-65.99-27.354-25.796 0-49.125 10.459-66.02 27.354-16.895 16.894-27.353 40.224-27.353 65.99 0 21.573 7.312 41.415 19.587 57.204v-15.193c0-10.828 4.422-20.636 11.537-27.752 6.548-6.576 15.448-10.828 25.285-11.452-1.758-4.45-2.722-9.326-2.722-14.371v-34.498c0-7.002 2.863-13.379 7.483-18 4.621-4.621 10.999-7.484 18.028-7.484h28.318c7.03 0 13.408 2.863 18.028 7.484s7.483 10.998 7.483 18v34.498zm-13.011 29.31c-7.03 6.407-16.413 10.348-26.646 10.348-10.262 0-19.616-3.94-26.674-10.348h-7.853c-6.661 0-12.728 2.723-17.121 7.116-4.422 4.422-7.144 10.488-7.144 17.149v30.529c6.491 5.272 13.691 9.666 21.458 13.068v-29.736c0-4.139 3.345-7.512 7.483-7.512s7.512 3.373 7.512 7.512v34.81c7.144 1.758 14.627 2.693 22.338 2.693 7.682 0 15.165-.936 22.309-2.693v-34.81c0-4.139 3.373-7.512 7.512-7.512s7.483 3.373 7.483 7.512v29.736c7.795-3.402 14.995-7.824 21.486-13.097v-30.501c0-6.661-2.749-12.728-7.172-17.149-4.394-4.394-10.46-7.116-17.121-7.116h-7.85zm-206.561 214.728c6.463-1.247 13.351-2.268 20.438-3.061 5.924-.623 11.934-1.077 17.858-1.275v-72.965h-74.977c.17 7.512.567 14.91 1.19 22.139.766 8.787 1.843 17.207 3.175 25.23 7.54 4.535 14.457 9.977 20.637 16.157 4.253 4.25 8.164 8.871 11.679 13.775zm53.32-4.366c22.28.681 43.314 4.422 62.079 10.545 7.597-24.378 12.245-52.896 12.898-83.482h-74.977zm76.11 15.761c14.74 6.18 27.666 13.946 38.211 22.932 10.517-10.743 19.616-22.903 27.015-36.113 2.012-3.6 6.548-4.903 10.176-2.891 3.6 1.984 4.904 6.548 2.892 10.148-16.129 28.886-39.714 52.952-68.202 69.677-27.523 16.157-59.556 25.427-93.713 25.427-6.378 0-12.812-.34-19.247-.992-4.139-.453-8.249-.992-12.303-1.701-5.386 15.818-14.343 30.02-25.936 41.586-19.589 19.585-46.688 31.718-76.622 31.718-28.885 0-56.268-11.396-76.592-31.72-19.616-19.617-31.748-46.716-31.748-76.621 0-29.936 12.132-57.007 31.748-76.622 9.127-9.156 19.928-16.668 31.861-22.082-1.871-6.804-3.345-13.749-4.422-20.835-1.389-9.185-2.126-18.567-2.126-28.12 0-10.63.907-21.118 2.664-31.351 1.786-10.432 4.422-20.581 7.88-30.36 1.389-3.912 5.669-5.953 9.553-4.564 3.912 1.361 5.953 5.642 4.563 9.553-3.146 8.958-5.612 18.285-7.228 27.895-1.191 6.944-1.956 14.059-2.268 21.345h72.737c.652-32.429 5.641-62.731 13.861-88.726-14.74-6.18-27.666-13.946-38.211-22.904-9.666 9.865-18.142 20.92-25.172 32.91-2.098 3.544-6.661 4.734-10.233 2.665-3.572-2.098-4.762-6.689-2.664-10.233 16.384-27.893 39.855-51.138 67.918-67.21 27.13-15.536 58.509-24.408 91.986-24.408 6.378 0 12.812.34 19.247 1.021 4.139.425 8.249.992 12.303 1.673 5.386-15.818 14.372-29.991 25.936-41.558 19.588-19.615 46.687-31.748 76.621-31.748 29.905 0 57.004 12.133 76.592 31.748 19.615 19.589 31.748 46.688 31.748 76.593 0 29.936-12.133 57.034-31.748 76.622-9.128 9.156-19.928 16.668-31.861 22.11 1.871 6.804 3.345 13.749 4.422 20.807 1.389 9.185 2.126 18.567 2.126 28.12 0 9.893-.794 19.7-2.353 29.367-1.56 9.836-3.884 19.361-6.889 28.518-1.275 3.939-5.499 6.094-9.439 4.818-3.94-1.275-6.066-5.499-4.79-9.439 2.778-8.532 4.933-17.292 6.378-26.249.992-6.322 1.645-12.842 1.928-19.503h-72.737c-.652 32.4-5.641 62.703-13.862 88.697zm27.213 33.223c-8.93-7.343-19.786-13.806-32.145-19.05-2.579 6.634-5.358 12.897-8.334 18.795-7.086 14.003-15.363 25.852-24.52 35.008 14.287-3.997 27.809-9.779 40.309-17.121 8.759-5.131 17.036-11.055 24.69-17.632zm-46.177-24.294c-17.206-5.584-36.566-9.014-57.147-9.694v74.212c18.907-3.656 36.227-21.033 49.493-47.226 2.75-5.414 5.302-11.198 7.654-17.292zm-72.17-9.666c-5.471.198-10.942.596-16.299 1.162-4.621.511-9.212 1.162-13.691 1.899 7.512 14.74 11.764 31.438 11.764 49.126 0 4.535-.283 9.014-.822 13.407 3.77 2.692 7.625 4.876 11.594 6.435 2.466.964 4.932 1.701 7.455 2.183v-74.212zm-103.323-224.903c8.93 7.37 19.815 13.805 32.174 19.077 2.551-6.633 5.329-12.926 8.305-18.794 7.087-14.004 15.336-25.854 24.52-35.009-13.691 3.827-26.646 9.298-38.693 16.185-9.383 5.359-18.17 11.567-26.306 18.541zm46.177 24.293c17.206 5.612 36.567 9.014 57.146 9.694v-74.211c-18.907 3.656-36.227 21.033-49.493 47.255-2.749 5.384-5.301 11.168-7.653 17.262zm72.17 9.695c5.727-.17 11.311-.567 16.725-1.162 4.535-.482 8.957-1.105 13.295-1.843-7.541-14.769-11.793-31.494-11.793-49.211 0-4.535.283-8.985.822-13.379-3.742-2.722-7.625-4.876-11.594-6.435-2.466-.964-4.932-1.701-7.455-2.183zm38.324 10.658c-6.52 1.304-13.181 2.324-20.012 3.062-6.039.651-12.161 1.105-18.312 1.275v72.965h74.977c-.17-7.54-.567-14.939-1.19-22.167-.766-8.787-1.843-17.207-3.175-25.201-7.512-4.535-14.457-9.978-20.637-16.186-4.253-4.252-8.165-8.844-11.651-13.748zm-53.348 4.337c-22.28-.681-43.313-4.422-62.079-10.545-7.597 24.406-12.245 52.895-12.897 83.51h74.977v-72.965zm101.99 33.675c.709 5.245 1.305 10.518 1.758 15.847.652 7.653 1.077 15.478 1.247 23.442h72.737c-.256-6.236-.851-12.388-1.786-18.396-.907-6.066-2.154-11.991-3.685-17.803-9.724 2.863-20.013 4.395-30.643 4.395-14.003 0-27.353-2.664-39.628-7.485zm-188.957 93.545c-.709-5.244-1.304-10.518-1.758-15.818-.652-7.682-1.077-15.506-1.247-23.442h-72.737c.255 6.236.879 12.359 1.786 18.398.907 6.037 2.154 11.99 3.685 17.802 9.723-2.864 20.012-4.395 30.643-4.395 14.003-.001 27.354 2.635 39.628 7.455z"/></g></svg>