<svg id="Capa_1" enable-background="new 0 0 512 512" height="512" viewBox="0 0 512 512" width="512" xmlns="http://www.w3.org/2000/svg"><g><path d="m52.913 83.5c-12.391 0-22.472 10.094-22.472 22.5s10.081 22.5 22.472 22.5 22.471-10.094 22.471-22.5-10.08-22.5-22.471-22.5zm0 30c-4.12 0-7.472-3.364-7.472-7.5s3.352-7.5 7.472-7.5c4.119 0 7.471 3.364 7.471 7.5s-3.352 7.5-7.471 7.5z"/><path d="m117.788 83.5c-12.391 0-22.472 10.094-22.472 22.5s10.081 22.5 22.472 22.5 22.471-10.094 22.471-22.5-10.08-22.5-22.471-22.5zm0 30c-4.12 0-7.472-3.364-7.472-7.5s3.352-7.5 7.472-7.5c4.119 0 7.471 3.364 7.471 7.5s-3.352 7.5-7.471 7.5z"/><path d="m180.792 83.5c-12.391 0-22.472 10.094-22.472 22.5s10.081 22.5 22.472 22.5 22.471-10.094 22.471-22.5-10.08-22.5-22.471-22.5zm0 30c-4.12 0-7.472-3.364-7.472-7.5s3.352-7.5 7.472-7.5c4.119 0 7.471 3.364 7.471 7.5s-3.352 7.5-7.471 7.5z"/><path d="m457.385 83.5h-104.798c-4.143 0-7.5 3.357-7.5 7.5s3.357 7.5 7.5 7.5h104.798c4.12 0 7.472 3.364 7.472 7.5s-3.352 7.5-7.472 7.5h-209.597c-4.12 0-7.472-3.364-7.472-7.5s3.352-7.5 7.472-7.5h70.212c4.143 0 7.5-3.357 7.5-7.5s-3.357-7.5-7.5-7.5h-70.212c-12.391 0-22.472 10.094-22.472 22.5s10.081 22.5 22.472 22.5h209.597c12.391 0 22.472-10.094 22.472-22.5s-10.082-22.5-22.472-22.5z"/><path d="m204.63 250.175c-11.105 4.571-19.421 14.182-22.167 25.952l-6.599-2.142c-.062-.02-.123-.039-.185-.057-8.147-2.415-14.928-7.822-19.093-15.228l-10.05-17.866c-2.03-3.61-6.605-4.89-10.214-2.86-3.61 2.031-4.891 6.604-2.86 10.214l10.05 17.866c6.071 10.794 15.944 18.684 27.809 22.227l8.889 2.886c-.541 5.766-.814 11.647-.665 17.485l-36.075 7.518c-4.055.845-6.657 4.817-5.812 8.872.827 4.082 4.92 6.67 8.872 5.812l33.996-7.085c1.199 10.475 3.456 20.57 6.696 30.033l-2.9.942c-11.863 3.541-21.736 11.432-27.809 22.227l-10.05 17.865c-2.03 3.609-.75 8.183 2.86 10.214 1.162.653 2.425.964 3.67.964 2.621 0 5.167-1.377 6.544-3.824l10.05-17.865c4.165-7.406 10.946-12.813 19.092-15.227.063-.019.125-.038.187-.058l4.061-1.318c2.565 5.313 5.46 10.357 8.705 15.041 14.853 21.441 34.872 33.25 56.369 33.25 10.621 0 20.911-2.887 30.587-8.579 3.569-2.101 4.761-6.697 2.66-10.268-2.101-3.568-6.697-4.763-10.268-2.66-7.338 4.317-15.069 6.507-22.979 6.507-22.657 0-42.577-17.849-53.818-44.637-6.212-14.894-9.659-31.821-9.682-50.363 0-8.68.792-17.281 2.354-25.564 1.637-8.678 8.354-15.575 17.115-17.572 28.144-6.469 59.795-6.478 87.945-.026 8.723 1.982 15.436 8.864 17.104 17.531 1.647 8.56 2.482 17.184 2.482 25.632 0 24.925-6.484 48.515-18.259 66.425-2.274 3.462-1.313 8.112 2.147 10.387 3.461 2.276 8.111 1.315 10.388-2.146 2.682-4.08 5.109-8.418 7.296-12.957l4.062 1.319c.062.02.124.039.187.058 8.146 2.413 14.927 7.82 19.092 15.227l10.05 17.865c2.042 3.645 6.67 4.871 10.214 2.86 3.61-2.031 4.891-6.604 2.86-10.214l-10.05-17.865c-6.072-10.795-15.945-18.686-27.809-22.227l-2.915-.947c3.241-9.47 5.5-19.571 6.703-30.029l34.003 7.086c3.952.858 8.045-1.73 8.872-5.812.846-4.055-1.757-8.027-5.812-8.872l-36.074-7.518c.158-6.234-.176-12.439-.852-18.723l5.075-1.647c11.864-3.543 21.737-11.433 27.809-22.227l10.05-17.866c2.03-3.61.75-8.183-2.86-10.214-3.607-2.027-8.183-.75-10.214 2.86l-10.05 17.866c-4.165 7.405-10.945 12.813-19.093 15.228-.062.018-.123.037-.185.057l-2.987.97c-3.005-11.212-11.112-20.318-21.777-24.755-.989-14.28-8.308-26.843-19.175-34.886l17.522-17.522c2.929-2.93 2.929-7.678 0-10.607-2.93-2.928-7.678-2.928-10.607 0l-20.975 20.975c-12.324-3.237-27.947-3.238-40.272 0l-20.975-20.975c-2.93-2.928-7.678-2.928-10.607 0-2.929 2.93-2.929 7.678 0 10.607l17.522 17.522c-10.862 8.036-18.179 20.589-19.175 34.858zm59.37-29.163c15.445 0 28.399 10.833 31.686 25.297-24.447-4.387-50.924-4.387-75.371 0 3.287-14.464 16.241-25.297 31.686-25.297z"/><path d="m504.5 380.5c-4.143 0-7.5 3.357-7.5 7.5v32.5c0 12.406-10.094 22.5-22.5 22.5h-437c-12.406 0-22.5-10.094-22.5-22.5v-189.5c0-4.143-3.357-7.5-7.5-7.5s-7.5 3.357-7.5 7.5v189.5c0 20.678 16.822 37.5 37.5 37.5h437c20.678 0 37.5-16.822 37.5-37.5v-32.5c0-4.143-3.357-7.5-7.5-7.5z"/><path d="m474.5 54h-437c-20.678 0-37.5 16.822-37.5 37.5v104.5c0 4.143 3.357 7.5 7.5 7.5s7.5-3.357 7.5-7.5v-37.5h482v194.5c0 4.143 3.357 7.5 7.5 7.5s7.5-3.357 7.5-7.5v-261.5c0-20.678-16.822-37.5-37.5-37.5zm-459.5 89.5v-52c0-12.406 10.094-22.5 22.5-22.5h437c12.406 0 22.5 10.094 22.5 22.5v52z"/></g></svg>