<svg id="Social_Distancing" height="512" viewBox="0 0 64 64" width="512" xmlns="http://www.w3.org/2000/svg" data-name="Social Distancing"><path d="m46 61h-28l1.077-7h25.846z" fill="#56788b"/><rect fill="#56788b" height="44" rx="2" width="58" x="3" y="3"/><path d="m39 57h-14l1-10h12z" fill="#d9f0f4"/><path d="m7 7h50v36h-50z" fill="#d9f0f4"/><path d="m11 10h19v27h-19z" fill="#fff"/><path d="m19 24h3v6h-3z" fill="#ffcbbe"/><path d="m16 18h9a0 0 0 0 1 0 0v4.5a4.5 4.5 0 0 1 -4.5 4.5 4.5 4.5 0 0 1 -4.5-4.5v-4.5a0 0 0 0 1 0 0z" fill="#ffddce"/><path d="m15 14h6a4 4 0 0 1 4 4v1a0 0 0 0 1 0 0h-7a3 3 0 0 1 -3-3v-2a0 0 0 0 1 0 0z" fill="#3e3d42"/><path d="m19 30h3a5 5 0 0 1 5 5v2a0 0 0 0 1 0 0h-13a0 0 0 0 1 0 0v-2a5 5 0 0 1 5-5z" fill="#5bcbfa"/><path d="m34 7h23v18h-23z" fill="#fff"/><path d="m34 25h23v18h-23z" fill="#c2dff6"/><path d="m43 13h5a0 0 0 0 1 0 0v3.5a2.5 2.5 0 0 1 -2.5 2.5 2.5 2.5 0 0 1 -2.5-2.5v-3.5a0 0 0 0 1 0 0z" fill="#ffddce"/><path d="m45 10h4a0 0 0 0 1 0 0v1a2 2 0 0 1 -2 2h-4a0 0 0 0 1 0 0v-1a2 2 0 0 1 2-2z" fill="#3e3d42"/><path d="m50 25h-9v-3a3 3 0 0 1 3-3h3a3 3 0 0 1 3 3z" fill="#0beaa2"/><path d="m45.664 28h-.328a5 5 0 0 0 -4.949 4.293l-.023.161a17.948 17.948 0 0 0 0 5.092l1.636 3.454h7l1.636-3.454a17.948 17.948 0 0 0 0-5.092l-.023-.161a5 5 0 0 0 -4.949-4.293z" fill="#3e3d42"/><path d="m45 32h2a1 1 0 0 1 1 1v2.5a2.5 2.5 0 0 1 -2.5 2.5 2.5 2.5 0 0 1 -2.5-2.5v-1.5a2 2 0 0 1 2-2z" fill="#ffddce"/><path d="m50 43h-9v-2a3 3 0 0 1 3-3h3a3 3 0 0 1 3 3z" fill="#ff6b81"/><path d="m59 2h-54a3.009 3.009 0 0 0 -3 3v40a3.009 3.009 0 0 0 3 3h19.89l-.5 5h-5.31a1.008 1.008 0 0 0 -.99.85l-1.08 7a1 1 0 0 0 .99 1.15h28a1 1 0 0 0 .99-1.15l-1.08-7a1.008 1.008 0 0 0 -.99-.85h-5.31l-.5-5h19.89a3.009 3.009 0 0 0 3-3v-40a3.009 3.009 0 0 0 -3-3zm-19.26 55.67a1.036 1.036 0 0 0 .26-.77l-.19-1.9h4.25l.77 5h-25.66l.77-5h4.25l-.19 1.9a1.036 1.036 0 0 0 .26.77 1 1 0 0 0 .74.33h14a1 1 0 0 0 .74-.33zm-13.64-1.67.8-8h10.2l.8 8zm33.9-11a1 1 0 0 1 -1 1h-54a1 1 0 0 1 -1-1v-40a1 1 0 0 1 1-1h54a1 1 0 0 1 1 1z"/><path d="m57 6h-50a1 1 0 0 0 -1 1v36a1 1 0 0 0 1 1h50a1 1 0 0 0 1-1v-36a1 1 0 0 0 -1-1zm-24 36h-25v-34h25zm16 0h-7v-1a2.006 2.006 0 0 1 2-2h3a2.006 2.006 0 0 1 2 2zm-5-6.5v-1.5a1 1 0 0 1 1-1h2v2.5a1.5 1.5 0 0 1 -3 0zm5.67 1.76-.27.56a4.332 4.332 0 0 0 -.91-.53 3.4 3.4 0 0 0 .51-1.79v-2.5a2.006 2.006 0 0 0 -2-2h-2a3.009 3.009 0 0 0 -3 3v1.5a3.4 3.4 0 0 0 .51 1.79 4.332 4.332 0 0 0 -.91.53l-.27-.56a17.013 17.013 0 0 1 .01-4.62l.04-.21a4.022 4.022 0 0 1 3.96-3.43h.32a4.039 4.039 0 0 1 3.97 3.48l.02.11a16.987 16.987 0 0 1 .02 4.67zm6.33 4.74h-5v-1a4 4 0 0 0 -.25-1.35l.79-1.67a.754.754 0 0 0 .09-.29 19.369 19.369 0 0 0 -.01-5.43l-.02-.11a6.023 6.023 0 0 0 -5.94-5.15h-.32a6.006 6.006 0 0 0 -5.93 5.1l-.04.21a19.39 19.39 0 0 0 0 5.38.754.754 0 0 0 .09.29l.79 1.67a4 4 0 0 0 -.25 1.35v1h-5v-16h21zm-9-28v2.5a1.5 1.5 0 0 1 -3 0v-2.5zm-3-2a1 1 0 0 1 1-1h3a1 1 0 0 1 -1 1zm3 8a2.006 2.006 0 0 1 2 2v2h-7v-2a2.006 2.006 0 0 1 2-2zm9 4h-5v-2a4.011 4.011 0 0 0 -2.51-3.71 3.4 3.4 0 0 0 .51-1.79v-3.28a2.986 2.986 0 0 0 1-2.22v-1a1 1 0 0 0 -1-1h-4a3.009 3.009 0 0 0 -3 3v4.5a3.4 3.4 0 0 0 .51 1.79 4.011 4.011 0 0 0 -2.51 3.71v2h-5v-16h21z"/><path d="m30 9h-19a1 1 0 0 0 -1 1v27a1 1 0 0 0 1 1h19a1 1 0 0 0 1-1v-27a1 1 0 0 0 -1-1zm-4 27h-11v-1a4 4 0 0 1 4-4h3a4 4 0 0 1 4 4zm-9-16.14a4.091 4.091 0 0 0 1 .14h6v2.5a3.5 3.5 0 0 1 -7 0zm-1-3.86v-1h5a3.009 3.009 0 0 1 3 3h-6a2.006 2.006 0 0 1 -2-2zm5 11.97v1.03h-1v-1.03a4.182 4.182 0 0 0 1 0zm8 8.03h-1v-1a6.007 6.007 0 0 0 -5-5.91v-1.7a5.494 5.494 0 0 0 3-4.89v-4.5a5 5 0 0 0 -5-5h-6a1 1 0 0 0 -1 1v2a4 4 0 0 0 1 2.62v3.88a5.494 5.494 0 0 0 3 4.89v1.7a6.007 6.007 0 0 0 -5 5.91v1h-1v-25h17z"/></svg>