<?xml version="1.0" encoding="UTF-8"?>
<!DOCTYPE svg PUBLIC "-//W3C//DTD SVG 1.1//EN" "http://www.w3.org/Graphics/SVG/1.1/DTD/svg11.dtd">
<!-- Creator: CorelDRAW X5 -->
<svg xmlns="http://www.w3.org/2000/svg" xml:space="preserve" width="191.139mm" height="130mm" style="shape-rendering:geometricPrecision; text-rendering:geometricPrecision; image-rendering:optimizeQuality; fill-rule:evenodd; clip-rule:evenodd"
viewBox="0 0 19114 13000"
 xmlns:xlink="http://www.w3.org/1999/xlink">
 <defs>
  <style type="text/css">
   <![CDATA[
    .fil3 {fill:#332C2B;fill-rule:nonzero}
    .fil2 {fill:#767575;fill-rule:nonzero}
    .fil1 {fill:#E73328;fill-rule:nonzero}
    .fil0 {fill:#FEFEFE;fill-rule:nonzero}
   ]]>
  </style>
 </defs>
 <g id="__x0023_Layer_x0020_1">
  <metadata id="CorelCorpID_0Corel-Layer"/>
  <path class="fil0" d="M11576 6339c54,-100 85,-214 85,-335 0,-402 -339,-729 -757,-729 -98,0 -191,18 -276,50 9,73 25,146 48,217 57,-22 119,-35 185,-35 269,0 487,208 487,464 0,98 -32,190 -87,265 97,48 205,82 316,102z"/>
  <path class="fil1" d="M10860 5508c-66,0 -128,12 -185,35 77,238 231,460 447,613 43,30 89,57 138,81 55,-75 87,-166 87,-265 0,-256 -218,-464 -487,-464z"/>
  <path class="fil1" d="M11977 5761c179,-137 630,-433 560,-553 -57,-97 -303,20 -582,172 -219,119 -172,-25 -33,-235 123,-185 307,-435 204,-503 -120,-79 -486,357 -572,443 -86,86 -164,132 -121,-107 58,-318 69,-485 -3,-505 -100,-28 -163,97 -313,447 -108,251 -201,296 -213,70 -15,-405 -118,-312 -157,-250 -109,171 -146,378 -121,586 85,-33 179,-50 276,-50 418,0 757,327 757,729 0,121 -31,235 -85,335 239,44 490,23 680,-72 32,-16 108,-63 60,-127 -95,-130 -267,-62 -450,-115 -161,-47 -18,-166 112,-264z"/>
  <path class="fil2" d="M11260 6237c-88,121 -235,200 -401,200 -269,0 -487,-208 -487,-465 0,-194 125,-360 302,-430 -23,-72 -39,-144 -48,-217 -281,106 -481,370 -481,679 0,403 339,730 757,730 293,0 546,-160 672,-395 -110,-20 -218,-55 -316,-102z"/>
  <path class="fil3" d="M7188 6054c0,-29 -25,-53 -55,-53l-495 0c-29,0 -54,24 -54,53 0,29 24,52 54,52l190 0 0 569c0,31 26,56 58,56 32,0 58,-25 58,-56l0 -569 190 0c30,0 55,-24 55,-52z"/>
  <path class="fil3" d="M7353 6171c-151,0 -270,124 -270,283l0 2c0,161 120,282 280,282 85,0 150,-25 210,-82 11,-9 18,-22 18,-37 0,-27 -23,-49 -52,-49 -12,0 -23,4 -33,13 -42,38 -87,55 -141,55 -87,0 -150,-54 -166,-140l362 0c30,0 54,-23 54,-52 0,-137 -90,-276 -262,-276zm-2 97l0 0c93,0 137,70 149,141l-301 0c16,-84 76,-141 152,-141z"/>
  <path class="fil3" d="M7742 5966c-31,0 -56,25 -56,55l0 655c0,31 25,55 57,55 32,0 56,-24 56,-55l0 -655c0,-30 -26,-55 -57,-55z"/>
  <path class="fil3" d="M8188 6424l161 -154c11,-10 21,-23 21,-41 0,-29 -23,-52 -53,-52 -17,0 -30,7 -43,20l-256 253 0 -429c0,-30 -25,-55 -57,-55 -31,0 -56,25 -56,55l0 655c0,31 25,55 57,55 32,0 55,-24 55,-55l0 -91 91 -87 171 209c13,17 27,24 47,24 31,0 55,-23 55,-52 0,-13 -4,-23 -14,-36l-179 -219z"/>
  <path class="fil3" d="M8682 6171c-164,0 -292,125 -292,284l0 2c0,158 127,282 290,282 164,0 293,-124 293,-284l0 -2c0,-158 -128,-282 -291,-282zm-178 282l0 0c0,-103 76,-182 176,-182 100,0 179,81 179,183l0 2c0,103 -76,180 -177,180 -100,0 -178,-80 -178,-182l0 -2z"/>
  <path class="fil3" d="M9660 6171c-76,0 -137,29 -184,88 -38,-57 -97,-88 -171,-88 -73,0 -120,30 -153,65l0 -4c0,-31 -25,-55 -57,-55 -31,0 -56,25 -56,55l0 445c0,31 25,55 57,55 32,0 56,-24 56,-55l0 -258c0,-84 54,-145 130,-145 75,0 119,50 119,136l0 267c0,31 24,55 56,55 32,0 57,-24 57,-55l0 -261c0,-85 51,-142 128,-142 77,0 120,49 120,138l0 265c0,31 25,55 57,55 31,0 56,-24 56,-55l0 -283c0,-137 -81,-222 -213,-222z"/>
  <path class="fil3" d="M7134 6905c-28,0 -52,24 -52,52l0 629c0,28 24,51 52,51 29,0 53,-23 53,-51l0 -629c0,-28 -24,-52 -53,-52z"/>
  <path class="fil3" d="M7592 7082c-70,0 -127,26 -170,76l0 -19c0,-28 -23,-50 -52,-50 -28,0 -51,23 -51,50l0 448c0,28 23,50 52,50 29,0 51,-22 51,-50l0 -262c0,-88 61,-150 147,-150 86,0 135,52 135,144l0 268c0,28 23,50 52,50 29,0 51,-22 51,-50l0 -287c0,-133 -85,-218 -216,-218z"/>
  <path class="fil3" d="M8389 6875c-29,0 -51,22 -51,50l0 244c-51,-58 -115,-87 -192,-87 -129,0 -266,98 -266,280l0 2c0,181 137,279 266,279 77,0 140,-30 192,-92l0 35c0,28 23,50 52,50 29,0 51,-22 51,-50l0 -661c0,-28 -23,-50 -52,-50zm-48 486l0 0 0 2c0,116 -94,188 -181,188 -100,0 -175,-81 -175,-188l0 -2c0,-110 72,-187 175,-187 89,0 181,70 181,187z"/>
  <path class="fil3" d="M8810 7082c-162,0 -289,123 -289,281l0 2c0,156 126,279 288,279 163,0 290,-123 290,-281l0 -2c0,-157 -127,-279 -288,-279zm-185 279l0 0c0,-107 79,-188 183,-188 104,0 185,83 185,190l0 2c0,106 -79,187 -183,187 -103,0 -185,-83 -185,-189l0 -2z"/>
  <path class="fil3" d="M9449 7082c-70,0 -127,26 -170,76l0 -19c0,-28 -23,-50 -52,-50 -28,0 -51,23 -51,50l0 448c0,28 23,50 52,50 29,0 51,-22 51,-50l0 -262c0,-88 61,-150 148,-150 86,0 135,52 135,144l0 268c0,28 23,50 52,50 29,0 51,-22 51,-50l0 -287c0,-133 -85,-218 -216,-218z"/>
  <path class="fil3" d="M10003 7082c-150,0 -267,123 -267,280l0 2c0,160 119,280 277,280 84,0 148,-25 209,-81 10,-9 16,-21 16,-33 0,-25 -21,-44 -47,-44 -10,0 -20,4 -30,12 -44,39 -90,57 -146,57 -91,0 -159,-60 -174,-152l371 0c27,0 49,-21 49,-48 0,-136 -89,-273 -259,-273zm-161 241l0 0c14,-91 78,-153 159,-153 100,0 146,76 156,153l-316 0z"/>
  <path class="fil3" d="M10546 7315l-2 -1c-65,-19 -126,-37 -126,-77l0 -2c0,-38 36,-63 91,-63 42,0 87,13 133,38 5,2 13,5 23,5 26,0 47,-20 47,-44 0,-17 -9,-32 -25,-42 -56,-29 -119,-45 -176,-45 -114,0 -193,65 -193,159l0 2c0,106 107,135 184,157 71,19 124,37 124,80l0 2c0,42 -39,70 -98,70 -54,0 -109,-18 -162,-53 -6,-5 -16,-8 -26,-8 -26,0 -47,20 -47,45 0,18 10,31 20,37 60,42 139,67 211,67 120,0 201,-67 201,-166l0 -2c0,-107 -108,-138 -179,-159z"/>
  <path class="fil3" d="M10866 7088c-28,0 -51,23 -51,50l0 448c0,28 23,50 52,50 29,0 51,-22 51,-50l0 -448c0,-28 -23,-50 -52,-50z"/>
  <path class="fil3" d="M11429 7146c-41,-40 -102,-60 -180,-60 -64,0 -119,11 -178,36 -13,5 -29,21 -29,43 0,24 21,45 47,45 6,0 12,-2 19,-4 44,-19 87,-28 133,-28 67,0 146,23 146,129l0 3c-39,-10 -85,-18 -151,-18 -148,0 -239,68 -239,178l0 2c0,113 106,172 210,172 87,0 144,-34 180,-70l0 16c0,27 22,48 50,48 29,0 50,-21 50,-50l0 -282c0,-68 -19,-122 -58,-159zm-41 243l0 0 0 41c0,73 -71,128 -166,128 -59,0 -122,-29 -122,-92l0 -2c0,-60 53,-95 143,-95 49,0 96,6 145,19z"/>
  <path class="fil3" d="M6620 8474c-31,0 -51,-16 -51,-42 0,-6 1,-14 3,-21l29 -110 -27 0 9 -32 27 0 16 -59 36 0 -16 59 61 0 -8 32 -61 0 -30 110c-1,6 -1,10 -1,13 0,11 8,17 23,17 8,0 17,-2 27,-6l6 -2 -10 34 -2 1c-11,4 -20,6 -32,6z"/>
  <path class="fil3" d="M6873 8471l-36 0 31 -115c2,-6 3,-15 3,-21 0,-23 -15,-37 -40,-37 -29,0 -58,25 -67,60l-30 113 -36 0 1 -4 74 -278 36 0 -28 103c14,-14 34,-27 61,-27 40,0 66,25 66,63 0,10 -3,22 -5,31l-29 111z"/>
  <path class="fil3" d="M7030 8475c-54,0 -89,-35 -89,-86 0,-59 48,-124 117,-124 54,0 79,39 79,78 0,13 -3,26 -7,39l-1 2 -152 0c0,1 0,2 0,3 0,34 22,56 56,56 27,0 44,-11 58,-22l3 -2 19 24 -2 2c-17,14 -41,30 -79,30zm-48 -121l0 0 118 0c1,-3 1,-7 1,-11 0,-23 -12,-47 -45,-47 -33,0 -61,23 -74,58z"/>
  <polygon class="fil3" points="7471,8472 7440,8472 7429,8326 7340,8472 7310,8472 7293,8269 7330,8269 7339,8417 7429,8269 7458,8269 7469,8417 7558,8269 7596,8269 "/>
  <path class="fil3" d="M7682 8475c-54,0 -92,-37 -92,-91 0,-63 55,-119 118,-119 54,0 92,37 92,90 0,64 -55,120 -118,120zm24 -178l0 0c-42,0 -80,41 -80,87 0,36 22,59 58,59 42,0 80,-41 80,-86 0,-37 -22,-59 -58,-59z"/>
  <path class="fil3" d="M7854 8471l-36 0 54 -201 36 0 -10 39c24,-28 50,-43 79,-43 2,0 4,0 6,0l4 0 -10 38 -5 0c-45,0 -84,34 -97,87l-21 79z"/>
  <polygon class="fil3" points="8008,8471 7972,8471 8048,8189 8083,8189 8082,8193 "/>
  <path class="fil3" d="M8163 8475c-47,0 -80,-36 -80,-86 0,-67 51,-124 112,-124 42,0 62,23 72,42l31 -118 36 0 -75 282 -36 0 7 -25c-20,20 -42,29 -67,29zm35 -178l0 0c-43,0 -78,40 -78,90 0,34 21,56 52,56 42,0 83,-44 83,-89 0,-33 -24,-57 -57,-57z"/>
  <path class="fil3" d="M8468 8471l-35 0 54 -201 36 0 -54 201zm66 -237l0 0 -40 0 11 -39 40 0 -10 39z"/>
  <path class="fil3" d="M8705 8471l-36 0 31 -115c2,-6 3,-15 3,-21 0,-24 -15,-37 -40,-37 -29,0 -58,25 -67,60l-30 113 -36 0 54 -201 36 0 -6 23c15,-15 34,-27 62,-27 40,0 65,25 65,63 0,10 -3,21 -5,31l-29 111z"/>
  <path class="fil3" d="M8885 8532c-16,0 -30,-4 -45,-14l-3 -2 20 -27 3 2c6,5 18,9 28,9 16,0 30,-10 47,-34l-36 -197 37 0 26 157 101 -157 41 0 -137 206c-27,40 -51,56 -83,56z"/>
  <path class="fil3" d="M9187 8475c-54,0 -92,-37 -92,-91 0,-63 55,-119 118,-119 54,0 92,37 92,90 0,64 -55,120 -118,120zm24 -178l0 0c-42,0 -80,41 -80,87 0,36 22,59 58,59 42,0 80,-41 80,-86 0,-37 -22,-59 -58,-59z"/>
  <path class="fil3" d="M9404 8475c-40,0 -65,-25 -65,-64 0,-8 2,-18 5,-31l29 -111 36 0 -31 114c-1,7 -2,15 -2,21 0,24 15,38 40,38 29,0 58,-26 67,-61l30 -112 36 0 -54 201 -36 0 6 -23c-15,14 -34,27 -62,27z"/>
  <path class="fil3" d="M9590 8471l-36 0 54 -201 36 0 -10 39c25,-30 53,-44 86,-42l4 0 -10 38 -5 0c-45,0 -84,34 -98,88l-21 79z"/>
  <path class="fil3" d="M9994 8471l-36 0 30 -115c2,-6 3,-14 3,-21 0,-23 -15,-37 -41,-37 -29,0 -58,25 -67,60l-30 113 -36 0 1 -4 74 -278 36 0 -28 103c15,-15 34,-27 61,-27 40,0 66,25 66,63 0,10 -3,22 -5,31l-29 111z"/>
  <path class="fil3" d="M10116 8475c-38,0 -65,-24 -65,-57 0,-44 36,-74 90,-74 20,0 42,3 67,10l1 -2c1,-5 2,-12 2,-17 0,-30 -27,-36 -49,-36 -18,0 -34,3 -54,10l-4 1 -6 -31 3 -1c22,-8 42,-12 66,-12 50,0 80,24 80,64 0,8 -1,17 -4,27l-30 113 -36 0 6 -22c-19,18 -41,26 -67,26zm26 -103l0 0c-32,0 -55,17 -55,42 0,19 14,31 38,31 33,0 64,-24 73,-55l3 -11c-14,-4 -35,-8 -59,-8z"/>
  <path class="fil3" d="M10442 8471l-36 0 31 -115c2,-6 3,-14 3,-21 0,-23 -15,-37 -40,-37 -29,0 -57,25 -67,60l-30 113 -36 0 54 -201 36 0 -6 23c15,-14 34,-27 61,-27 40,0 65,25 65,63 0,8 -2,18 -5,31l-29 111z"/>
  <path class="fil3" d="M10591 8475c-47,0 -81,-36 -81,-86 0,-67 52,-124 113,-124 32,0 58,15 72,42l32 -118 35 0 -75 282 -35 0 7 -25c-20,20 -43,29 -67,29zm35 -178l0 0c-43,0 -78,40 -78,90 0,34 20,56 52,56 42,0 84,-44 84,-89 0,-33 -24,-57 -57,-57z"/>
 </g>
</svg>
